<?xml version="1.0" encoding="iso-8859-1"?>
<!-- Generator: Adobe Illustrator 24.1.3, SVG Export Plug-In . SVG Version: 6.00 Build 0)  -->
<svg version="1.1" id="Layer_1" xmlns="http://www.w3.org/2000/svg" xmlns:xlink="http://www.w3.org/1999/xlink" x="0px" y="0px"
	 viewBox="0 0 100 100" style="enable-background:new 0 0 100 100;" xml:space="preserve">
<path style="fill:#C9D7DB;" d="M33.251,67.828L33.251,67.828c-1.657-2.87-0.674-6.539,2.196-8.196l31.12-17.967
	c2.87-1.657,6.539-0.674,8.196,2.196v0c1.657,2.87,0.674,6.539-2.196,8.196l-31.12,17.967
	C38.578,71.681,34.908,70.698,33.251,67.828z"/>
<path style="fill:#92D8EC;" d="M23.146,62.391L23.146,62.391c-1.657-2.87-0.674-6.539,2.196-8.196l41.569-24
	c2.87-1.657,6.539-0.674,8.196,2.196l0,0c1.657,2.87,0.674,6.539-2.196,8.196l-41.569,24C28.472,66.245,24.803,65.261,23.146,62.391
	z"/>
</svg>
