<?xml version="1.0" encoding="iso-8859-1"?>
<!-- Generator: Adobe Illustrator 24.1.3, SVG Export Plug-In . SVG Version: 6.00 Build 0)  -->
<svg version="1.1" id="Layer_1" xmlns="http://www.w3.org/2000/svg" xmlns:xlink="http://www.w3.org/1999/xlink" x="0px" y="0px"
	 viewBox="0 0 1920 1080" style="enable-background:new 0 0 1920 1080;" xml:space="preserve">
<g>
	<polygon style="fill:none;stroke:#000000;stroke-width:5;stroke-miterlimit:10;" points="303.912,516.782 303.912,605.398 
		260.961,605.398 260.961,387.607 306.172,387.607 326.517,442.14 347.272,387.607 392.277,387.607 392.277,605.398 
		349.122,605.398 349.122,516.782 365.562,463.953 339.874,528.711 313.159,528.711 287.471,463.953 	"/>
	<path d="M484.09,486.74c-0.2-11.76-2.76-21.69-7.69-29.79c-4.92-8.1-10.87-12.15-17.83-12.15h-32.06c-2.35,0-4.34,1.36-5.98,4.08
		c-1.64,2.72-2.46,6.02-2.46,9.9c0,3.77,0.83,7.05,2.51,9.82s3.65,4.16,5.93,4.16h32.08c2.34,0,4.34,1.36,5.98,4.08
		c1.64,2.72,2.46,6.02,2.46,9.9l0.2,19.8c-3.42-1.33-6.03-1.99-7.84-1.99h-33.06c-7.03,0-13.05,4.13-18.04,12.4
		c-4.99,8.26-7.48,18.22-7.48,29.87v16.31c0,11.76,2.48,21.74,7.43,29.95c4.96,8.21,10.99,12.32,18.09,12.32h28.54l14.27-13.98
		c0,3.88,0.84,7.18,2.51,9.9c1.67,2.72,3.71,4.08,6.12,4.08c2.27,0,4.25-1.36,5.92-4.08c1.67-2.72,2.51-6.02,2.51-9.9L484.09,486.74
		z M450.11,576.77H426.3c-2.27,0-4.25-1.38-5.92-4.16c-1.68-2.77-2.51-6.04-2.51-9.82v-15.64c0-3.88,0.82-7.18,2.46-9.9
		c1.64-2.72,3.63-4.08,5.97-4.08h33.25c2.34,0,4.32,1.33,5.92,4c1.61,2.66,2.45,5.99,2.52,9.98l0.5,11.82L450.11,576.77z"/>
	<path d="M513.023,591.419V458.781c0-3.882,0.818-7.239,2.458-10.068c1.638-2.829,3.628-4.244,5.97-4.244
		c2.341,0,4.331,1.388,5.97,4.16c1.639,2.775,2.458,6.158,2.458,10.152v17.474l13.747-19.471
		c5.685-7.988,11.238-11.982,16.657-11.982h12.342c6.957,0,12.91,4.106,17.861,12.315c4.95,8.212,7.425,18.085,7.425,29.623v7.489
		c0,3.994-0.82,7.38-2.458,10.152c-1.64,2.774-3.629,4.161-5.97,4.161c-2.343,0-4.332-1.357-5.971-4.078
		c-1.64-2.717-2.458-6.017-2.458-9.902v-7.822c0-3.882-0.82-7.182-2.458-9.902c-1.64-2.717-3.63-4.077-5.971-4.077h-10.938
		c-2.342,0-4.951,2.054-7.827,6.158l-23.982,34.449v78.052c0,3.885-0.837,7.185-2.508,9.902c-1.673,2.72-3.647,4.077-5.92,4.077
		c-2.342,0-4.332-1.357-5.97-4.077C513.842,598.604,513.023,595.304,513.023,591.419z"/>
	<path d="M700.288,605.398h-36.023c-6.356,0-11.774-3.162-16.255-9.486l-16.356-23.632c-5.218-7.211-7.827-16.975-7.827-29.29
		v-36.446c-0.268-11.871,2.675-22.189,8.83-30.955l14.75-21.136c4.749-6.433,9.833-9.652,15.252-9.652h37.83
		c2.341,0,4.33,1.36,5.97,4.078c1.638,2.72,2.458,6.02,2.458,9.902c0,3.994-0.82,7.323-2.458,9.985
		c-1.64,2.663-3.629,3.994-5.97,3.994h-36.224c-2.275,0-4.449,1.498-6.522,4.493l-13.546,19.139
		c-2.208,3.107-3.312,7.268-3.312,12.481v34.117c0,3.661,0.869,6.769,2.609,9.319l14.851,20.97c1.872,2.774,4.348,4.16,7.425,4.16
		h34.518c2.273,0,4.247,1.36,5.92,4.077c1.671,2.721,2.509,6.021,2.509,9.902c0,3.885-0.82,7.185-2.458,9.902
		C704.618,604.041,702.628,605.398,700.288,605.398z"/>
	<path d="M806.17,460.11c-7.12-10.65-14.47-15.86-22.02-15.64h-19.77c-8.03,0-15.47,5.41-22.33,16.22
		c-6.86,10.82-10.28,22.33-10.28,34.54v59.08c0,12.2,3.51,23.71,10.53,34.53c7.03,10.82,14.38,16.23,22.08,16.23h19.77
		c7.55,0,14.9-5.33,22.02-15.98c7.12-10.65,10.69-22.24,10.69-34.78v-59.08C816.86,482.47,813.29,470.76,806.17,460.11z M800,553.31
		c0,4.77-1.04,8.49-3.11,11.15l-5.12,7.49c-2.34,3.44-4.95,5.16-7.83,5.16h-19.56c-2.55,0-4.52-1-5.92-3l-6.32-8.99
		c-2.21-2.99-3.32-7.04-3.32-12.14v-56.59c0-4.66,1.04-8.43,3.12-11.31l5.71-8.16c2.08-2.99,5.02-4.49,8.84-4.49h17.45
		c2.68,0,5.02,1.39,7.03,4.16l5.92,7.82c2.07,2.66,3.11,6.77,3.11,12.32V553.31z"/>
	<path d="M865.348,444.801h38.632c6.021,0,11.339,2.97,15.955,8.904c4.616,5.937,6.924,11.732,6.924,17.391
		c0,3.994-0.853,7.268-2.559,9.819c-1.706,2.553-3.597,3.828-5.669,3.828c-2.677,0-5.118-1.997-7.325-5.991
		s-4.516-5.991-6.924-5.991h-38.13c-3.747,0-5.619,2.584-5.619,7.754c0,3.63,1.25,6.378,3.75,8.248l44.815,33.092
		c4.548,3.329,8.278,8.683,11.188,16.06c2.91,7.379,4.365,15.56,4.365,24.547c0,11.982-2.559,22.134-7.676,30.455
		c-5.117,8.321-10.921,12.481-17.409,12.481h-34.117c-5.887,0-11.356-2.938-16.406-8.82c-5.051-5.88-7.576-11.593-7.576-17.142
		c0-3.661,0.818-6.906,2.458-9.735c1.638-2.829,3.763-4.244,6.372-4.244c2.14,0,4.431,1.997,6.874,5.991
		c2.441,3.994,5.97,5.991,10.586,5.991h31.408c2.474,0,4.548-1.581,6.221-4.743c1.671-3.162,2.508-6.795,2.508-10.9
		c0-6.324-1.874-10.872-5.619-13.646l-45.254-33.784c-4.349-3.217-7.693-7.876-10.034-13.979
		c-2.343-6.101-3.512-12.315-3.512-18.639c0-9.985,2.09-18.639,6.271-25.962C854.025,448.462,859.193,444.801,865.348,444.801z"/>
	<polygon style="fill:none;stroke:#000000;stroke-width:5;stroke-miterlimit:10;" points="1146.924,475.882 1146.924,387.607 
		1191.929,387.607 1191.929,605.398 1146.924,605.398 1087.123,465.316 1105.824,517.123 1105.824,605.398 1060.613,605.398 
		1060.613,387.607 1105.824,387.607 1165.419,527.689 	"/>
	<path d="M1288.13,545.15c2.28,0,4.25-1.38,5.92-4.16c1.68-2.77,2.51-6.04,2.51-9.82v-33.78c0-13.42-2.27-23.52-6.82-30.29
		l-6.32-9.98c-5.29-8.21-10.91-12.32-16.86-12.32h-23.68c-5.62,0-10.74,3.11-15.35,9.32l-7.03,9.15c-2.61,3.44-4.76,8.27-6.47,14.48
		c-1.71,6.22-2.56,11.15-2.56,14.81v64.08c0,4.66,0.79,9.76,2.36,15.31c1.57,5.55,3.53,9.87,5.87,12.98l7.53,10.98
		c1.53,2.22,3.92,4.36,7.17,6.41c3.24,2.05,6.34,3.08,9.28,3.08h44.45c2.21,0,4.17-1.39,5.87-4.16c1.71-2.77,2.56-6.05,2.56-9.82
		c0-3.88-0.83-7.18-2.51-9.9c-1.67-2.72-3.64-4.08-5.92-4.08h-43.34c-2.41,0-4.96-1.72-7.63-5.16l-4.92-6.82
		c-2.47-3.33-3.71-7.38-3.71-12.15v-8.16H1288.13z M1228.73,495.23c0-4.44,1.1-8.05,3.31-10.82l4.92-6.82c2.14-3,4.51-4.5,7.12-4.5
		h21.18c2,0,4.28,1.72,6.82,5.16l4.92,7.16c1.93,2.77,2.91,6.77,2.91,11.98v19.47h-51.18V495.23z"/>
	<path d="M1328.397,591.419V458.781c0-3.882,0.819-7.239,2.459-10.068c1.639-2.829,3.628-4.244,5.971-4.244
		c2.341,0,4.33,1.388,5.97,4.16c1.639,2.775,2.459,6.158,2.459,10.152v17.474l13.747-19.471
		c5.685-7.988,11.238-11.982,16.656-11.982h12.343c6.956,0,12.909,4.106,17.86,12.315c4.95,8.212,7.426,18.085,7.426,29.623v7.489
		c0,3.994-0.82,7.38-2.459,10.152c-1.64,2.774-3.629,4.161-5.97,4.161c-2.343,0-4.332-1.357-5.971-4.078
		c-1.64-2.717-2.458-6.017-2.458-9.902v-7.822c0-3.882-0.82-7.182-2.459-9.902c-1.64-2.717-3.629-4.077-5.97-4.077h-10.938
		c-2.343,0-4.951,2.054-7.827,6.158l-23.981,34.449v78.052c0,3.885-0.838,7.185-2.509,9.902c-1.673,2.72-3.646,4.077-5.92,4.077
		c-2.343,0-4.332-1.357-5.971-4.077C1329.217,598.604,1328.397,595.304,1328.397,591.419z"/>
	<path d="M1530.215,485.741l-45.438,170.429c-1.54,6.093-4.218,9.141-8.031,9.141h-23.391c-2.342,0-4.333-1.332-5.974-3.994
		c-1.64-2.663-2.458-5.991-2.458-9.985c0-3.885,0.818-7.156,2.458-9.819c1.639-2.662,3.628-3.994,5.971-3.994h18.062l11.536-44.435
		h-4.11c-3.813,0-6.563-3.266-8.25-9.803l-25.265-97.539v-26.96c0-3.882,0.803-7.182,2.408-9.902
		c1.605-2.718,3.545-4.078,5.82-4.078c2.341,0,4.364,1.36,6.07,4.078c1.706,2.72,2.559,6.02,2.559,9.902l-0.003,20.805
		l22.179,85.205h5.857l22.898-84.906l0.043-21.45c0-3.656,0.853-6.899,2.559-9.726c1.706-2.826,3.729-4.241,6.07-4.241
		c2.273,0,4.248,1.388,5.921,4.16c1.671,2.775,2.508,6.048,2.508,9.819V485.741z"/>
	<path d="M1585.431,444.801h38.632c6.021,0,11.339,2.97,15.955,8.904c4.615,5.937,6.923,11.732,6.923,17.391
		c0,3.994-0.853,7.268-2.559,9.819c-1.706,2.553-3.597,3.828-5.669,3.828c-2.677,0-5.118-1.997-7.325-5.991
		c-2.208-3.994-4.516-5.991-6.924-5.991h-38.13c-3.747,0-5.619,2.584-5.619,7.754c0,3.63,1.249,6.378,3.75,8.248l44.815,33.092
		c4.549,3.329,8.278,8.683,11.188,16.06c2.91,7.379,4.365,15.56,4.365,24.547c0,11.982-2.56,22.134-7.677,30.455
		s-10.922,12.481-17.409,12.481h-34.117c-5.887,0-11.355-2.938-16.405-8.82c-5.052-5.88-7.576-11.593-7.576-17.142
		c0-3.661,0.818-6.906,2.458-9.735c1.639-2.829,3.764-4.244,6.372-4.244c2.141,0,4.431,1.997,6.874,5.991
		c2.44,3.994,5.97,5.991,10.586,5.991h31.407c2.474,0,4.548-1.581,6.221-4.743c1.672-3.162,2.509-6.795,2.509-10.9
		c0-6.324-1.873-10.872-5.619-13.646l-45.255-33.784c-4.349-3.217-7.693-7.876-10.034-13.979
		c-2.342-6.101-3.512-12.315-3.512-18.639c0-9.985,2.09-18.639,6.271-25.962C1574.107,448.462,1579.275,444.801,1585.431,444.801z"
		/>
</g>
</svg>
