<svg id="traço" xmlns="http://www.w3.org/2000/svg" viewBox="0 0 860.76 990.04"><defs><style>.cls-1{fill:#f2bd1b;}.cls-2{fill:#edb41a;}.cls-3{fill:#edf6f4;}.cls-4{fill:#ebaf1a;}.cls-5{font-size:411.06px;fill:#e2b639;font-family:BananaBrick, Banana Brick;letter-spacing:0.15em;}.cls-6,.cls-7{fill:#f0cc66;}.cls-7{font-size:58.67px;font-family:Acme-Regular, Acme;letter-spacing:0.15em;}</style></defs><path class="cls-1" d="M234.63,445.64a212.53,212.53,0,0,0,123.12,157,1186.57,1186.57,0,0,1,378,0,251.91,251.91,0,0,0,64.8-51.84,254.74,254.74,0,0,0,56.16-105.12c3.4,15.58,10.6,58.38-9.36,106.56a179.49,179.49,0,0,1-60.48,76.32,200.39,200.39,0,0,0,67-50.57c37-42.9,45.17-89.83,47.43-109.27,3.28,19.71,10.09,77.08-23.76,131a172.12,172.12,0,0,1-36.05,41c55.55,63.4,73.7,149.18,45.19,222.31-22.4,57.44-82,128.62-164.66,127-61.23-1.24-103.38-41.79-115.2-54,63.55,32.41,136.94,33.77,187.92-1.44C869.67,882.8,892.17,755,819.27,653c-15.53,8.87-38.73,21.57-67.68,35.28-47.7,22.58-70.27,28.61-95.15,40.44-30.26,14.37-70.37,40.35-110.77,91.32a480.43,480.43,0,0,0-192.24-122.4L264.87,653c-69.75,115.32-37.81,245.69,39.6,290.88C378,986.81,470.72,940.13,478.71,936c-16.65,17.33-48.73,44.88-93.27,49.93-87,9.87-173.47-71.53-191.85-161.53-20.19-98.79,48.14-176.18,56.88-185.76a163.15,163.15,0,0,1-38.16-38.16C173.68,546,181.3,484,184.23,465.8c3.38,22.29,14.19,72.09,54.72,116.64a217,217,0,0,0,61.2,46.8,183.46,183.46,0,0,1-54.72-70.56C223.35,508.09,231,462.24,234.63,445.64Z" transform="translate(-121.94 -445.64)"/><path class="cls-2" d="M281.43,673.16c6.68,16.12,18.54,38,40.32,55.44,28.2,22.6,58.49,26.15,74.61,29.27,36.61,7.11,87.33,29,146.55,95.29C579.09,810,614.6,788.85,640,777.56c44.58-19.83,75.63-17.2,115.92-45.36,27.79-19.43,44.9-43,54.72-59L779,741.56c1.63,3.05,28.5,55.33-.72,105.12-22.05,37.56-60.52,47.29-67.68,49C705.36,897,668,906.17,634.23,882c-28.3-20.29-34.74-50.21-36-56.88l-38.88,28.08L591,916.52l-45,108L495.27,919.4,529.83,856l-36-28.08c-2.9,8.65-13.05,35.22-41,54-32.47,21.77-66.1,17.75-74.16,16.56-5.89-1.69-52.6-16-72.72-64.8-19-46.11.59-86.88,3.6-92.88q-1.75-2.54-3.45-5.19A179.74,179.74,0,0,1,281.43,673.16Z" transform="translate(-121.94 -445.64)"/><path class="cls-3" d="M380.79,769.64l-3.6,20.16L347.67,784c-5.75,29.08,14.56,56.86,42.48,60.48,26.57,3.45,52.34-16,56.16-43.92h14.4c-.07,5.76-1,23.77-14.4,39.6-20.36,24.08-51.52,21.88-54.72,21.6-5.91-.64-30.31-4-47.23-24.72-17.28-21.19-19.91-52.13-6.77-79Z" transform="translate(-121.94 -445.64)"/><path class="cls-3" d="M712.71,768.2l43.92-5.76c1.07,4.18,11.44,47.41-16.56,77.76a74.22,74.22,0,0,1-32.16,20.1c-6.53,1.84-24,5.79-42.9-2C630.4,844,624.42,804.09,624.15,802l17.28-4.32c3.86,31.32,30.11,52.64,54.72,51.12,28.5-1.76,54.55-34.13,46.08-70.56l-27.36,7.92Z" transform="translate(-121.94 -445.64)"/><path class="cls-3" d="M386.55,628.52A508.45,508.45,0,0,1,546,721.4a469.15,469.15,0,0,1,119.88-74.88c11.55-5,22.86-9.25,33.84-13L546,781.88Z" transform="translate(-121.94 -445.64)"/><path class="cls-4" d="M181.61,870.44a600.07,600.07,0,0,0,10.3,152.16h34.56a105.19,105.19,0,0,1,0-35.52,66,66,0,0,0,26.4,23.52v12h78.72a336.66,336.66,0,0,1-150-152.16Z" transform="translate(-121.94 -445.64)"/><path class="cls-4" d="M909.35,870.44a599.54,599.54,0,0,1-10.29,152.16H864.5a105.19,105.19,0,0,0,0-35.52,66,66,0,0,1-26.4,23.52v12H759.38a336.57,336.57,0,0,0,150-152.16Z" transform="translate(-121.94 -445.64)"/><text class="cls-5" transform="translate(103.78 868.94)">mn</text><rect class="cls-6" x="224.46" y="884.64" width="411.84" height="14.64" rx="7.14"/><text class="cls-7" transform="translate(0 972.02) scale(1.48 1)">através do esporte</text></svg>